<?xml version="1.0" standalone="no"?>
<!DOCTYPE svg PUBLIC "-//W3C//DTD SVG 20010904//EN"
 "http://www.w3.org/TR/2001/REC-SVG-20010904/DTD/svg10.dtd">
<svg version="1.0" xmlns="http://www.w3.org/2000/svg"
 width="300.000000pt" height="300.000000pt" viewBox="0 0 300.000000 300.000000"
 preserveAspectRatio="xMidYMid meet">
<metadata>
Created by potrace 1.14, written by Peter Selinger 2001-2017
</metadata>
<g transform="translate(0.000000,300.000000) scale(0.100000,-0.100000)"
fill="#000000" stroke="none">
<path d="M0 1500 l0 -1500 1500 0 1500 0 0 1500 0 1500 -1500 0 -1500 0 0
-1500z m1228 313 l-3 -708 -27 -73 c-29 -80 -91 -182 -138 -227 l-30 -29 -119
118 -119 119 34 44 c65 85 64 76 64 805 l0 658 170 0 171 0 -3 -707z m1127
692 c115 -29 203 -81 296 -174 134 -134 189 -266 189 -451 0 -157 -32 -254
-127 -388 -48 -68 -141 -150 -206 -183 -23 -12 -44 -23 -45 -25 -2 -1 39 -78
91 -171 52 -92 110 -196 128 -230 l34 -61 -110 -111 c-61 -61 -117 -111 -125
-111 -10 0 -64 82 -142 213 -210 354 -428 734 -428 745 0 7 64 12 188 14 172
3 190 5 230 26 114 61 175 156 176 276 1 91 -33 165 -105 230 -83 74 -94 76
-490 76 -316 0 -349 2 -368 18 -17 15 -191 302 -191 317 0 3 213 5 473 5 389
0 483 -3 532 -15z m-1880 -1553 c17 -6 49 -14 73 -17 l42 -7 0 -163 c0 -90 -4
-166 -9 -169 -18 -11 -164 14 -229 40 -117 47 -118 47 -120 159 l-2 96 62 68
61 69 46 -33 c25 -17 60 -37 76 -43z"/>
</g>
</svg>
